
<svg id="Layer_1" data-name="Layer 1" xmlns="http://www.w3.org/2000/svg" viewBox="0 0 8.94 10"><defs><style>.cls-1{fill:#333;}</style></defs><path class="cls-1" d="M8,1.06H6.47A1.52,1.52,0,0,0,5,0,1.5,1.5,0,0,0,3.61,1H1.87C1,1,.57,1.4.57,2.31V8.62C.57,9.59,1,10,1.88,10H8.11c1,0,1.4-.38,1.4-1.42V2.7C9.51,1.39,9.24,1.06,8,1.06ZM5,1a.46.46,0,0,1,.36.17.45.45,0,0,1,.16.36A.52.52,0,0,1,5,2a.53.53,0,1,1-.35-1A.53.53,0,0,1,5,1Zm.52,7.09H3a.48.48,0,0,1-.51-.44.21.21,0,0,1,0-.11A.49.49,0,0,1,2.9,7H5.57c.36,0,.52.2.52.55a.48.48,0,0,1-.43.52H5.55ZM7,6.07H3c-.38,0-.59-.17-.58-.58S2.76,5,3.11,5H7c.38,0,.6.17.58.57a.48.48,0,0,1-.45.51Zm0-2H3c-.39,0-.58-.18-.57-.58A.5.5,0,0,1,2.91,3H7c.38,0,.61.14.61.55S7.38,4.07,7,4.07Z" transform="translate(-0.57 0)"/></svg>

