<svg id="Layer_1" data-name="Layer 1" xmlns="http://www.w3.org/2000/svg" viewBox="0 0 10 10"><defs><style>.cls-1{fill:#333;}</style></defs><path class="cls-1" d="M5,.69h.15A2.8,2.8,0,0,1,7.77,3.45,2.76,2.76,0,0,1,6.59,5.73l-.3.21V7.33H3.71V5.94l-.3-.21A2.77,2.77,0,0,1,5,.69M5,0A3.46,3.46,0,0,0,3,6.3V7.49A.55.55,0,0,0,3.56,8H6.45A.54.54,0,0,0,7,7.49V6.3A3.44,3.44,0,0,0,8.46,3.44,3.48,3.48,0,0,0,5.18,0Z"/><path class="cls-1" d="M5,1.18h.13A2.39,2.39,0,0,1,7.36,3.53a2.35,2.35,0,0,1-1,1.94l-.25.18V6.84H3.9V5.65l-.26-.18A2.36,2.36,0,0,1,5,1.18M5,.59A3,3,0,0,0,3.29,6V7a.47.47,0,0,0,.48.44H6.23A.46.46,0,0,0,6.7,7V6A3,3,0,0,0,5.15.59Z"/><path class="cls-1" d="M5,1.18h.13A2.39,2.39,0,0,1,7.36,3.53a2.35,2.35,0,0,1-1,1.94l-.25.18V6.84H3.9V5.65l-.26-.18A2.36,2.36,0,0,1,5,1.18M5,.59A3,3,0,0,0,3.29,6V7a.47.47,0,0,0,.48.44H6.23A.46.46,0,0,0,6.7,7V6A3,3,0,0,0,5.15.59Z"/><rect class="cls-1" x="3.56" y="9.1" width="2.86" height="0.9" rx="0.38"/></svg>