<svg id="Layer_1" data-name="Layer 1" xmlns="http://www.w3.org/2000/svg" viewBox="0 0 10 10"><defs><style>.cls-1{fill:#333;}</style></defs><path class="cls-1" d="M10,3.71A1.07,1.07,0,0,0,8.83,2.53H7V1.83a1.34,1.34,0,0,1,0-.21C7,.71,6.68.69,5,.69H5c-1.68,0-1.95,0-1.94.93a1.34,1.34,0,0,1,0,.21v.69H1.17A1.07,1.07,0,0,0,0,3.71c0,1.7,0,3.41,0,5.12A1.07,1.07,0,0,0,1.22,10H8.78A1.07,1.07,0,0,0,10,8.83C10,7.12,10,5.41,10,3.71ZM6.17,2.26a.28.28,0,0,1-.28.27H4.11a.28.28,0,0,1-.28-.27V1.71a.28.28,0,0,1,.28-.28H5.89a.28.28,0,0,1,.28.28Z"/></svg>