<svg id="Layer_1" data-name="Layer 1" xmlns="http://www.w3.org/2000/svg" viewBox="0 0 10 10"><path d="M8,1.06H6.47A1.52,1.52,0,0,0,5,0,1.49,1.49,0,0,0,3.61,1l-.1,0H1.87c-.91,0-1.3.4-1.3,1.31q0,3.15,0,6.31C.57,9.59,1,10,1.88,10H8.11c1,0,1.4-.38,1.4-1.42,0-2,0-3.92,0-5.88C9.51,1.39,9.24,1.06,8,1.06ZM5,1a.45.45,0,0,1,.36.17.45.45,0,0,1,.16.36A.52.52,0,0,1,5,2,.53.53,0,1,1,5,1Zm.52,7.09H3a.48.48,0,0,1-.51-.55A.48.48,0,0,1,3,7H5.57c.36,0,.52.2.52.55A.48.48,0,0,1,5.55,8.07ZM7,6.07h-4c-.38,0-.59-.17-.58-.58S2.76,5,3.11,5H7c.38,0,.6.17.58.57A.48.48,0,0,1,7,6.07Zm0-2H3c-.39,0-.58-.18-.57-.58A.49.49,0,0,1,3,3H7c.38,0,.61.14.61.55S7.38,4.07,7,4.07Z"/></svg>